<?xml version="1.0" standalone="no"?><!DOCTYPE svg PUBLIC "-//W3C//DTD SVG 1.1//EN" "http://www.w3.org/Graphics/SVG/1.1/DTD/svg11.dtd"><svg t="1757903951651" class="icon" viewBox="0 0 1024 1024" version="1.1" xmlns="http://www.w3.org/2000/svg" p-id="26136" xmlns:xlink="http://www.w3.org/1999/xlink" width="200" height="200"><path d="M0 0m186.181818 0l651.636364 0q186.181818 0 186.181818 186.181818l0 651.636364q0 186.181818-186.181818 186.181818l-651.636364 0q-186.181818 0-186.181818-186.181818l0-651.636364q0-186.181818 186.181818-186.181818Z" fill="#FA9547" p-id="26137"></path><path d="M634.368 287.813818a46.545455 46.545455 0 0 0-63.581091-17.058909l-135.68 78.359273H302.545455a46.545455 46.545455 0 0 0-46.545455 46.545454v325.818182a46.545455 46.545455 0 0 0 46.545455 46.545455h418.90909a46.545455 46.545455 0 0 0 46.545455-46.545455V395.636364a46.545455 46.545455 0 0 0-46.545455-46.545455h-51.665454l-35.421091-61.300364z m-18.455273 61.114182l-87.249454-0.093091 45.242182-26.135273a23.272727 23.272727 0 0 1 31.790545 8.541091l10.24 17.687273zM558.545455 558.545455c0-46.033455 38.865455-81.454545 84.363636-81.454546H721.454545v162.909091h-78.545454C597.387636 640 558.545455 604.625455 558.545455 558.545455z" fill="#FFFFFF" p-id="26138"></path></svg>